<svg width="162" height="162" viewBox="0 0 162 162" fill="none" xmlns="http://www.w3.org/2000/svg">
<g clip-path="url(#clip0_217_9)">
<path fill-rule="evenodd" clip-rule="evenodd" d="M39.6349 65.1056C42.9166 61.3142 46.5861 57.6435 50.6435 54.0933L97.6088 13L161.938 87.4867L115.081 128.486C111.023 132.036 106.901 135.183 102.714 137.926C98.5275 140.669 94.31 142.884 90.0617 144.571C85.8133 146.258 81.5413 147.315 77.2456 147.742C72.9499 148.17 68.6656 147.826 64.3927 146.71C60.1199 145.595 55.871 143.65 51.646 140.874C47.421 138.099 43.2641 134.344 39.1752 129.61C35.0551 124.839 31.9161 120.146 29.7581 115.53C27.6 110.915 26.2775 106.409 25.7904 102.013C25.3033 97.6168 25.5521 93.3064 26.537 89.0818C27.5218 84.8572 29.1306 80.7529 31.3633 76.7688C33.5961 72.7848 36.3533 68.897 39.6349 65.1056ZM91.626 46.6928L66.7969 68.4176C62.0932 72.5333 58.4743 76.4452 55.9404 80.1535C53.4064 83.8617 51.882 87.4798 51.3671 91.0077C50.8522 94.5356 51.2763 98.0193 52.6392 101.459C54.0021 104.898 56.2286 108.407 59.3187 111.985C62.4087 115.563 65.5508 118.27 68.745 120.107C71.9391 121.945 75.2918 122.834 78.8031 122.776C82.3144 122.717 86.0705 121.683 90.0715 119.674C94.0725 117.664 98.4248 114.601 103.129 110.486L127.958 88.761L91.626 46.6928Z" fill="#333333"/>
<path fill-rule="evenodd" clip-rule="evenodd" d="M14.6713 65.154C17.9529 61.3626 21.6224 57.6919 25.6798 54.1417L72.6451 13.0484L136.975 87.5351L90.117 128.534C86.0596 132.084 81.9375 135.231 77.7507 137.974C73.5639 140.718 69.3463 142.933 65.098 144.619C60.8497 146.306 56.5776 147.363 52.2819 147.791C47.9862 148.218 43.7019 147.874 39.4291 146.759C35.1562 145.643 30.9073 143.698 26.6823 140.923C22.4573 138.147 18.3004 134.393 14.2115 129.658C10.0915 124.887 6.9524 120.194 4.79437 115.579C2.63635 110.963 1.31379 106.457 0.82669 102.061C0.339593 97.6652 0.588461 93.3548 1.57329 89.1302C2.55811 84.9056 4.1669 80.8013 6.39965 76.8172C8.6324 72.8332 11.3896 68.9454 14.6713 65.154ZM66.6623 46.7412L41.8332 68.466C37.1295 72.5816 33.5107 76.4936 30.9767 80.2018C28.4428 83.9101 26.9183 87.5282 26.4035 91.0561C25.8886 94.584 26.3126 98.0676 27.6755 101.507C29.0384 104.946 31.2649 108.455 34.355 112.033C37.4451 115.611 40.5872 118.319 43.7813 120.156C46.9754 121.993 50.3282 122.882 53.8395 122.824C57.3508 122.766 61.1069 121.732 65.1079 119.722C69.1088 117.712 73.4611 114.65 78.1649 110.534L102.994 88.8094L66.6623 46.7412Z" fill="#AD102F"/>
</g>
<defs>
<clipPath id="clip0_217_9">
<rect width="162" height="162" fill="white"/>
</clipPath>
</defs>
</svg>
