<svg width="162" height="162" viewBox="0 0 162 162" fill="none" xmlns="http://www.w3.org/2000/svg">
<g clip-path="url(#clip0_217_9)">
<path d="M50.6435 54.0933L49.6631 52.9581L50.6435 54.0933ZM97.6088 13L98.7376 12.0122L97.7572 10.877L96.6283 11.8647L97.6088 13ZM161.938 87.4867L162.919 88.622L164.048 87.6342L163.067 86.499L161.938 87.4867ZM102.714 137.926L103.529 139.187L102.714 137.926ZM90.0617 144.571L90.6093 145.971L90.6093 145.971L90.0617 144.571ZM77.2456 147.742L77.0998 146.245L77.0998 146.245L77.2456 147.742ZM64.3927 146.71L64.0161 148.167L64.0161 148.167L64.3927 146.71ZM51.646 140.874L52.464 139.614L52.464 139.614L51.646 140.874ZM29.7581 115.53L28.4051 116.172L28.4051 116.172L29.7581 115.53ZM26.537 89.0818L27.9926 89.4243L27.9926 89.4243L26.537 89.0818ZM31.3633 76.7688L30.0612 76.0305L30.0612 76.0305L31.3633 76.7688ZM91.626 46.6928L92.7549 45.7051L91.7744 44.5699L90.6456 45.5576L91.626 46.6928ZM55.9404 80.1535L57.1721 81.0054L57.1721 81.0054L55.9404 80.1535ZM51.3671 91.0077L52.8464 91.2251L52.8464 91.2251L51.3671 91.0077ZM52.6392 101.459L51.2503 102.017L51.2503 102.017L52.6392 101.459ZM68.745 120.107L69.4877 118.801L69.4877 118.801L68.745 120.107ZM90.0715 119.674L89.4048 118.327L89.4048 118.327L90.0715 119.674ZM103.129 110.486L102.148 109.351L102.148 109.351L103.129 110.486ZM127.958 88.761L128.938 89.8963L130.067 88.9085L129.086 87.7733L127.958 88.761ZM49.6631 52.9581C45.5574 56.5505 41.8383 60.2701 38.5079 64.1178L40.762 66.0935C43.9949 62.3583 47.6148 58.7365 51.6239 55.2286L49.6631 52.9581ZM96.6283 11.8647L49.6631 52.9581L51.6239 55.2286L98.5892 14.1352L96.6283 11.8647ZM163.067 86.499L98.7376 12.0122L96.4799 13.9877L160.809 88.4745L163.067 86.499ZM116.061 129.621L162.919 88.622L160.958 86.3515L114.1 127.351L116.061 129.621ZM103.529 139.187C107.778 136.403 111.955 133.213 116.061 129.621L114.1 127.351C110.091 130.858 106.024 133.963 101.899 136.665L103.529 139.187ZM90.6093 145.971C94.9594 144.244 99.266 141.98 103.529 139.187L101.899 136.665C97.789 139.358 93.6606 141.525 89.514 143.171L90.6093 145.971ZM77.3914 149.24C81.8326 148.798 86.2396 147.706 90.6093 145.971L89.514 143.171C85.3871 144.81 81.25 145.832 77.0998 146.245L77.3914 149.24ZM64.0161 148.167C68.4554 149.326 72.9164 149.685 77.3914 149.24L77.0998 146.245C72.9833 146.654 68.8758 146.326 64.7694 145.254L64.0161 148.167ZM50.828 142.135C55.1694 144.986 59.5659 147.005 64.0161 148.167L64.7694 145.254C60.6739 144.185 56.5725 142.313 52.464 139.614L50.828 142.135ZM38.0463 130.597C42.2054 135.413 46.4639 139.268 50.828 142.135L52.464 139.614C48.3781 136.93 44.3228 133.275 40.3041 128.622L38.0463 130.597ZM28.4051 116.172C30.6336 120.939 33.8567 125.746 38.0463 130.597L40.3041 128.622C36.2536 123.932 33.1986 119.353 31.1111 114.889L28.4051 116.172ZM24.3044 102.181C24.8122 106.764 26.1877 111.43 28.4051 116.172L31.1111 114.889C29.0124 110.4 27.7427 106.054 27.2764 101.845L24.3044 102.181ZM25.0813 88.7393C24.0567 93.1345 23.7988 97.6176 24.3044 102.181L27.2764 101.845C26.8078 97.6159 27.0476 93.4784 27.9926 89.4243L25.0813 88.7393ZM30.0612 76.0305C27.7627 80.1318 26.1001 84.3688 25.0813 88.7393L27.9926 89.4243C28.9434 85.3455 30.4985 81.3739 32.6655 77.5072L30.0612 76.0305ZM38.5079 64.1178C35.1661 67.9787 32.3484 71.9492 30.0612 76.0305L32.6655 77.5072C34.8438 73.6203 37.5405 69.8154 40.762 66.0935L38.5079 64.1178ZM67.7773 69.5529L92.6064 47.8281L90.6456 45.5576L65.8164 67.2824L67.7773 69.5529ZM57.1721 81.0054C59.6126 77.4339 63.1346 73.6152 67.7773 69.5529L65.8164 67.2824C61.0518 71.4514 57.336 75.4566 54.7086 79.3015L57.1721 81.0054ZM52.8464 91.2251C53.3205 87.9766 54.7348 84.5722 57.1721 81.0054L54.7086 79.3015C52.078 83.1512 50.4434 86.983 49.8878 90.7903L52.8464 91.2251ZM54.0281 100.9C52.7587 97.6968 52.3713 94.4803 52.8464 91.2251L49.8878 90.7903C49.3331 94.5909 49.7938 98.3417 51.2503 102.017L54.0281 100.9ZM60.4475 110.997C57.4381 107.512 55.3142 104.146 54.0281 100.9L51.2503 102.017C52.69 105.65 55.019 109.301 58.1898 112.973L60.4475 110.997ZM69.4877 118.801C66.4735 117.067 63.4569 114.482 60.4475 110.997L58.1898 112.973C61.3605 116.644 64.6281 119.473 68.0022 121.414L69.4877 118.801ZM78.7798 121.271C75.5501 121.325 72.4605 120.511 69.4877 118.801L68.0022 121.414C71.4177 123.379 75.0335 124.343 78.8265 124.28L78.7798 121.271ZM89.4048 118.327C85.551 120.263 82.0152 121.217 78.7798 121.271L78.8265 124.28C82.6136 124.217 86.5901 123.104 90.7382 121.02L89.4048 118.327ZM102.148 109.351C97.5053 113.413 93.2582 116.392 89.4048 118.327L90.7382 121.02C94.8867 118.936 99.3443 115.79 104.109 111.621L102.148 109.351ZM126.977 87.6258L102.148 109.351L104.109 111.621L128.938 89.8963L126.977 87.6258ZM90.4971 47.6806L126.829 89.7488L129.086 87.7733L92.7549 45.7051L90.4971 47.6806Z" fill="#999999"/>
<path fill-rule="evenodd" clip-rule="evenodd" d="M14.6713 65.154C17.9529 61.3626 21.6224 57.6919 25.6798 54.1417L72.6451 13.0484L136.975 87.5351L90.117 128.534C86.0596 132.084 81.9375 135.231 77.7507 137.974C73.5639 140.718 69.3463 142.933 65.098 144.619C60.8497 146.306 56.5776 147.363 52.2819 147.791C47.9862 148.218 43.7019 147.874 39.4291 146.759C35.1562 145.643 30.9073 143.698 26.6823 140.923C22.4573 138.147 18.3004 134.393 14.2115 129.658C10.0915 124.887 6.9524 120.194 4.79437 115.579C2.63635 110.963 1.31379 106.457 0.82669 102.061C0.339593 97.6652 0.588461 93.3548 1.57329 89.1302C2.55811 84.9056 4.1669 80.8013 6.39965 76.8172C8.6324 72.8332 11.3896 68.9454 14.6713 65.154ZM66.6623 46.7412L41.8332 68.466C37.1295 72.5816 33.5107 76.4936 30.9767 80.2018C28.4428 83.9101 26.9183 87.5282 26.4035 91.0561C25.8886 94.584 26.3126 98.0676 27.6755 101.507C29.0384 104.946 31.2649 108.455 34.355 112.033C37.4451 115.611 40.5872 118.319 43.7813 120.156C46.9754 121.993 50.3282 122.882 53.8395 122.824C57.3508 122.766 61.1069 121.732 65.1079 119.722C69.1088 117.712 73.4611 114.65 78.1649 110.534L102.994 88.8094L66.6623 46.7412Z" fill="#C80000"/>
</g>
<defs>
<clipPath id="clip0_217_9">
<rect width="162" height="162" fill="white"/>
</clipPath>
</defs>
</svg>
